<svg width="2341" height="1038" viewBox="0 0 2341 1038" fill="none" xmlns="http://www.w3.org/2000/svg">
<g clip-path="url(#clip0_2010_28497)">
<path d="M-0.00415039 1043.16V-1.1499H2340.92V1043.16C1439.77 1185.94 404.824 1102.66 -0.00415039 1043.16Z" fill="url(#paint0_linear_2010_28497)"/>
<path d="M556.24 172.85C556.24 322.762 434.712 444.29 284.8 444.29C134.888 444.29 13.3599 322.762 13.3599 172.85C13.3599 22.938 134.888 -98.5898 284.8 -98.5898C434.712 -98.5898 556.24 22.938 556.24 172.85ZM107.075 172.85C107.075 271.005 186.645 350.575 284.8 350.575C382.955 350.575 462.525 271.005 462.525 172.85C462.525 74.6953 382.955 -4.87497 284.8 -4.87497C186.645 -4.87497 107.075 74.6953 107.075 172.85Z" fill="url(#paint1_linear_2010_28497)"/>
<path d="M786.79 132.395C786.79 376.723 588.723 574.79 344.395 574.79C100.067 574.79 -98 376.723 -98 132.395C-98 -111.933 100.067 -310 344.395 -310C588.723 -310 786.79 -111.933 786.79 132.395ZM54.7372 132.395C54.7372 292.369 184.421 422.053 344.395 422.053C504.369 422.053 634.053 292.369 634.053 132.395C634.053 -27.5786 504.369 -157.263 344.395 -157.263C184.421 -157.263 54.7372 -27.5786 54.7372 132.395Z" fill="url(#paint2_linear_2010_28497)"/>
<g opacity="0.2">
<mask id="mask0_2010_28497" style="mask-type:alpha" maskUnits="userSpaceOnUse" x="801" y="-37" width="188" height="188">
<circle cx="894.96" cy="56.96" r="93.96" fill="#D9D9D9"/>
</mask>
<g mask="url(#mask0_2010_28497)">
<circle cx="805.474" cy="8.63768" r="4.47429" fill="white"/>
<circle cx="825.161" cy="8.63768" r="4.47429" fill="white"/>
<circle cx="844.848" cy="8.63768" r="4.47429" fill="white"/>
<circle cx="864.535" cy="8.63768" r="4.47429" fill="white"/>
<circle cx="884.222" cy="8.63768" r="4.47429" fill="white"/>
<circle cx="903.909" cy="8.63768" r="4.47429" fill="white"/>
<circle cx="923.596" cy="8.63768" r="4.47429" fill="white"/>
<circle cx="943.282" cy="8.63768" r="4.47429" fill="white"/>
<circle cx="962.969" cy="8.63768" r="4.47429" fill="white"/>
<circle cx="982.656" cy="8.63768" r="4.47429" fill="white"/>
<circle cx="805.474" cy="28.3246" r="4.47429" fill="white"/>
<circle cx="825.161" cy="28.3246" r="4.47429" fill="white"/>
<circle cx="844.848" cy="28.3246" r="4.47429" fill="white"/>
<circle cx="864.535" cy="28.3246" r="4.47429" fill="white"/>
<circle cx="884.222" cy="28.3246" r="4.47429" fill="white"/>
<circle cx="903.909" cy="28.3246" r="4.47429" fill="white"/>
<circle cx="923.596" cy="28.3246" r="4.47429" fill="white"/>
<circle cx="943.282" cy="28.3246" r="4.47429" fill="white"/>
<circle cx="962.969" cy="28.3246" r="4.47429" fill="white"/>
<circle cx="982.656" cy="28.3246" r="4.47429" fill="white"/>
<circle cx="805.474" cy="48.0114" r="4.47429" fill="white"/>
<circle cx="825.161" cy="48.0114" r="4.47429" fill="white"/>
<circle cx="844.848" cy="48.0114" r="4.47429" fill="white"/>
<circle cx="864.535" cy="48.0114" r="4.47429" fill="white"/>
<circle cx="884.222" cy="48.0114" r="4.47429" fill="white"/>
<circle cx="903.909" cy="48.0114" r="4.47429" fill="white"/>
<circle cx="923.596" cy="48.0114" r="4.47429" fill="white"/>
<circle cx="943.282" cy="48.0114" r="4.47429" fill="white"/>
<circle cx="962.969" cy="48.0114" r="4.47429" fill="white"/>
<circle cx="982.656" cy="48.0114" r="4.47429" fill="white"/>
<circle cx="805.474" cy="67.6983" r="4.47429" fill="white"/>
<circle cx="825.161" cy="67.6983" r="4.47429" fill="white"/>
<circle cx="844.848" cy="67.6983" r="4.47429" fill="white"/>
<circle cx="864.535" cy="67.6983" r="4.47429" fill="white"/>
<circle cx="884.222" cy="67.6983" r="4.47429" fill="white"/>
<circle cx="903.909" cy="67.6983" r="4.47429" fill="white"/>
<circle cx="923.596" cy="67.6983" r="4.47429" fill="white"/>
<circle cx="943.282" cy="67.6983" r="4.47429" fill="white"/>
<circle cx="962.969" cy="67.6983" r="4.47429" fill="white"/>
<circle cx="982.656" cy="67.6983" r="4.47429" fill="white"/>
<circle cx="805.474" cy="87.3851" r="4.47429" fill="white"/>
<circle cx="825.161" cy="87.3851" r="4.47429" fill="white"/>
<circle cx="844.848" cy="87.3851" r="4.47429" fill="white"/>
<circle cx="864.535" cy="87.3851" r="4.47429" fill="white"/>
<circle cx="884.222" cy="87.3851" r="4.47429" fill="white"/>
<circle cx="903.909" cy="87.3851" r="4.47429" fill="white"/>
<circle cx="923.596" cy="87.3851" r="4.47429" fill="white"/>
<circle cx="943.282" cy="87.3851" r="4.47429" fill="white"/>
<circle cx="962.969" cy="87.3851" r="4.47429" fill="white"/>
<circle cx="982.656" cy="87.3851" r="4.47429" fill="white"/>
<circle cx="805.474" cy="107.072" r="4.47429" fill="white"/>
<circle cx="825.161" cy="107.072" r="4.47429" fill="white"/>
<circle cx="844.848" cy="107.072" r="4.47429" fill="white"/>
<circle cx="864.535" cy="107.072" r="4.47429" fill="white"/>
<circle cx="884.222" cy="107.072" r="4.47429" fill="white"/>
<circle cx="903.909" cy="107.072" r="4.47429" fill="white"/>
<circle cx="923.596" cy="107.072" r="4.47429" fill="white"/>
<circle cx="943.282" cy="107.072" r="4.47429" fill="white"/>
<circle cx="962.969" cy="107.072" r="4.47429" fill="white"/>
<circle cx="982.656" cy="107.072" r="4.47429" fill="white"/>
<circle cx="805.474" cy="126.759" r="4.47429" fill="white"/>
<circle cx="825.161" cy="126.759" r="4.47429" fill="white"/>
<circle cx="844.848" cy="126.759" r="4.47429" fill="white"/>
<circle cx="864.535" cy="126.759" r="4.47429" fill="white"/>
<circle cx="884.222" cy="126.759" r="4.47429" fill="white"/>
<circle cx="903.909" cy="126.759" r="4.47429" fill="white"/>
<circle cx="923.596" cy="126.759" r="4.47429" fill="white"/>
<circle cx="943.282" cy="126.759" r="4.47429" fill="white"/>
<circle cx="962.969" cy="126.759" r="4.47429" fill="white"/>
<circle cx="982.656" cy="126.759" r="4.47429" fill="white"/>
<circle cx="805.474" cy="146.446" r="4.47429" fill="white"/>
<circle cx="825.161" cy="146.446" r="4.47429" fill="white"/>
<circle cx="844.848" cy="146.446" r="4.47429" fill="white"/>
<circle cx="864.535" cy="146.446" r="4.47429" fill="white"/>
<circle cx="884.222" cy="146.446" r="4.47429" fill="white"/>
<circle cx="903.909" cy="146.446" r="4.47429" fill="white"/>
<circle cx="923.596" cy="146.446" r="4.47429" fill="white"/>
<circle cx="943.282" cy="146.446" r="4.47429" fill="white"/>
<circle cx="962.969" cy="146.446" r="4.47429" fill="white"/>
<circle cx="982.656" cy="146.446" r="4.47429" fill="white"/>
</g>
</g>
<g clip-path="url(#clip1_2010_28497)">
<path opacity="0.2" d="M1719.02 185.54C1719.02 209.538 1699.57 228.993 1675.57 228.993C1651.57 228.993 1632.12 209.538 1632.12 185.54C1632.12 161.541 1651.57 142.086 1675.57 142.086C1699.57 142.086 1719.02 161.541 1719.02 185.54ZM1634.88 185.54C1634.88 208.014 1653.1 226.233 1675.57 226.233C1698.04 226.233 1716.26 208.014 1716.26 185.54C1716.26 163.065 1698.04 144.847 1675.57 144.847C1653.1 144.847 1634.88 163.065 1634.88 185.54Z" fill="url(#paint3_linear_2010_28497)"/>
<path opacity="0.2" d="M1737.92 185.54C1737.92 219.973 1710 247.886 1675.57 247.886C1641.14 247.886 1613.22 219.973 1613.22 185.54C1613.22 151.107 1641.14 123.193 1675.57 123.193C1710 123.193 1737.92 151.107 1737.92 185.54ZM1615.68 185.54C1615.68 218.616 1642.49 245.429 1675.57 245.429C1708.65 245.429 1735.46 218.616 1735.46 185.54C1735.46 152.464 1708.65 125.65 1675.57 125.65C1642.49 125.65 1615.68 152.464 1615.68 185.54Z" fill="url(#paint4_linear_2010_28497)"/>
<path opacity="0.2" d="M1760.59 185.54C1760.59 232.494 1722.52 270.558 1675.57 270.558C1628.62 270.558 1590.55 232.494 1590.55 185.54C1590.55 138.585 1628.62 100.522 1675.57 100.522C1722.52 100.522 1760.59 138.585 1760.59 185.54ZM1593.07 185.54C1593.07 231.105 1630 268.044 1675.57 268.044C1721.14 268.044 1758.07 231.105 1758.07 185.54C1758.07 139.974 1721.14 103.036 1675.57 103.036C1630 103.036 1593.07 139.974 1593.07 185.54Z" fill="url(#paint5_linear_2010_28497)"/>
<path opacity="0.2" d="M1785.15 184.595C1785.15 245.635 1735.67 295.118 1674.62 295.118C1613.58 295.118 1564.1 245.635 1564.1 184.595C1564.1 123.555 1613.58 74.0715 1674.62 74.0715C1735.67 74.0715 1785.15 123.555 1785.15 184.595ZM1566.51 184.595C1566.51 244.304 1614.92 292.707 1674.62 292.707C1734.33 292.707 1782.74 244.304 1782.74 184.595C1782.74 124.886 1734.33 76.4828 1674.62 76.4828C1614.92 76.4828 1566.51 124.886 1566.51 184.595Z" fill="url(#paint6_linear_2010_28497)"/>
<path opacity="0.2" d="M1811.6 184.595C1811.6 260.243 1750.27 321.568 1674.62 321.568C1598.98 321.568 1537.65 260.243 1537.65 184.595C1537.65 108.947 1598.98 47.6214 1674.62 47.6214C1750.27 47.6214 1811.6 108.947 1811.6 184.595ZM1540.36 184.595C1540.36 258.748 1600.47 318.86 1674.62 318.86C1748.78 318.86 1808.89 258.748 1808.89 184.595C1808.89 110.442 1748.78 50.3294 1674.62 50.3294C1600.47 50.3294 1540.36 110.442 1540.36 184.595Z" fill="url(#paint7_linear_2010_28497)"/>
<path opacity="0.2" d="M1834.27 184.595C1834.27 272.764 1762.79 344.24 1674.62 344.24C1586.46 344.24 1514.98 272.764 1514.98 184.595C1514.98 96.4255 1586.46 24.95 1674.62 24.95C1762.79 24.95 1834.27 96.4255 1834.27 184.595ZM1517.73 184.595C1517.73 271.248 1587.97 341.494 1674.62 341.494C1761.28 341.494 1831.52 271.248 1831.52 184.595C1831.52 97.9421 1761.28 27.696 1674.62 27.696C1587.97 27.696 1517.73 97.9421 1517.73 184.595Z" fill="url(#paint8_linear_2010_28497)"/>
</g>
<g clip-path="url(#clip2_2010_28497)">
<path opacity="0.2" d="M1112.61 730.659C1112.61 745.241 1100.79 757.063 1086.21 757.063C1071.63 757.063 1059.81 745.241 1059.81 730.659C1059.81 716.077 1071.63 704.255 1086.21 704.255C1100.79 704.255 1112.61 716.077 1112.61 730.659ZM1061.48 730.659C1061.48 744.315 1072.55 755.385 1086.21 755.385C1099.86 755.385 1110.94 744.315 1110.94 730.659C1110.94 717.003 1099.86 705.933 1086.21 705.933C1072.55 705.933 1061.48 717.003 1061.48 730.659Z" fill="url(#paint9_linear_2010_28497)"/>
<path opacity="0.2" d="M1124.09 730.659C1124.09 751.582 1107.13 768.543 1086.21 768.543C1065.29 768.543 1048.33 751.582 1048.33 730.659C1048.33 709.736 1065.29 692.775 1086.21 692.775C1107.13 692.775 1124.09 709.736 1124.09 730.659ZM1049.82 730.659C1049.82 750.757 1066.11 767.05 1086.21 767.05C1106.31 767.05 1122.6 750.757 1122.6 730.659C1122.6 710.561 1106.31 694.268 1086.21 694.268C1066.11 694.268 1049.82 710.561 1049.82 730.659Z" fill="url(#paint10_linear_2010_28497)"/>
<path opacity="0.2" d="M1137.87 730.659C1137.87 759.19 1114.74 782.319 1086.21 782.319C1057.68 782.319 1034.55 759.19 1034.55 730.659C1034.55 702.128 1057.68 679 1086.21 679C1114.74 679 1137.87 702.128 1137.87 730.659ZM1036.08 730.659C1036.08 758.346 1058.52 780.791 1086.21 780.791C1113.9 780.791 1136.34 758.346 1136.34 730.659C1136.34 702.972 1113.9 680.527 1086.21 680.527C1058.52 680.527 1036.08 702.972 1036.08 730.659Z" fill="url(#paint11_linear_2010_28497)"/>
<path opacity="0.2" d="M1152.79 730.085C1152.79 767.175 1122.72 797.242 1085.63 797.242C1048.54 797.242 1018.48 767.175 1018.48 730.085C1018.48 692.995 1048.54 662.928 1085.63 662.928C1122.72 662.928 1152.79 692.995 1152.79 730.085ZM1019.94 730.085C1019.94 766.366 1049.35 795.777 1085.63 795.777C1121.92 795.777 1151.33 766.366 1151.33 730.085C1151.33 693.804 1121.92 664.393 1085.63 664.393C1049.35 664.393 1019.94 693.804 1019.94 730.085Z" fill="url(#paint12_linear_2010_28497)"/>
<path opacity="0.2" d="M1168.86 730.085C1168.86 776.051 1131.6 813.314 1085.63 813.314C1039.67 813.314 1002.41 776.051 1002.41 730.085C1002.41 684.119 1039.67 646.856 1085.63 646.856C1131.6 646.856 1168.86 684.119 1168.86 730.085ZM1004.05 730.085C1004.05 775.142 1040.58 811.669 1085.63 811.669C1130.69 811.669 1167.22 775.142 1167.22 730.085C1167.22 685.028 1130.69 648.501 1085.63 648.501C1040.58 648.501 1004.05 685.028 1004.05 730.085Z" fill="url(#paint13_linear_2010_28497)"/>
<path opacity="0.2" d="M1182.64 730.085C1182.64 783.659 1139.21 827.09 1085.63 827.09C1032.06 827.09 988.63 783.659 988.63 730.085C988.63 676.511 1032.06 633.08 1085.63 633.08C1139.21 633.08 1182.64 676.511 1182.64 730.085ZM990.298 730.085C990.298 782.738 1032.98 825.421 1085.63 825.421C1138.29 825.421 1180.97 782.738 1180.97 730.085C1180.97 677.432 1138.29 634.749 1085.63 634.749C1032.98 634.749 990.298 677.432 990.298 730.085Z" fill="url(#paint14_linear_2010_28497)"/>
</g>
<g opacity="0.05">
<mask id="mask1_2010_28497" style="mask-type:alpha" maskUnits="userSpaceOnUse" x="1889" y="565" width="189" height="189">
<circle cx="1983.04" cy="659.18" r="93.96" fill="#D9D9D9"/>
</mask>
<g mask="url(#mask1_2010_28497)">
<circle cx="1893.55" cy="571.484" r="4.47429" fill="white"/>
<circle cx="1913.24" cy="571.484" r="4.47429" fill="white"/>
<circle cx="1932.93" cy="571.484" r="4.47429" fill="white"/>
<circle cx="1952.61" cy="571.484" r="4.47429" fill="white"/>
<circle cx="1972.3" cy="571.484" r="4.47429" fill="white"/>
<circle cx="1991.99" cy="571.484" r="4.47429" fill="white"/>
<circle cx="2011.68" cy="571.484" r="4.47429" fill="white"/>
<circle cx="2031.36" cy="571.484" r="4.47429" fill="white"/>
<circle cx="2051.05" cy="571.484" r="4.47429" fill="white"/>
<circle cx="2070.74" cy="571.484" r="4.47429" fill="white"/>
<circle cx="1893.55" cy="591.171" r="4.47429" fill="white"/>
<circle cx="1913.24" cy="591.171" r="4.47429" fill="white"/>
<circle cx="1932.93" cy="591.171" r="4.47429" fill="white"/>
<circle cx="1952.61" cy="591.171" r="4.47429" fill="white"/>
<circle cx="1972.3" cy="591.171" r="4.47429" fill="white"/>
<circle cx="1991.99" cy="591.171" r="4.47429" fill="white"/>
<circle cx="2011.68" cy="591.171" r="4.47429" fill="white"/>
<circle cx="2031.36" cy="591.171" r="4.47429" fill="white"/>
<circle cx="2051.05" cy="591.171" r="4.47429" fill="white"/>
<circle cx="2070.74" cy="591.171" r="4.47429" fill="white"/>
<circle cx="1893.55" cy="610.858" r="4.47429" fill="white"/>
<circle cx="1913.24" cy="610.858" r="4.47429" fill="white"/>
<circle cx="1932.93" cy="610.858" r="4.47429" fill="white"/>
<circle cx="1952.61" cy="610.858" r="4.47429" fill="white"/>
<circle cx="1972.3" cy="610.858" r="4.47429" fill="white"/>
<circle cx="1991.99" cy="610.858" r="4.47429" fill="white"/>
<circle cx="2011.68" cy="610.858" r="4.47429" fill="white"/>
<circle cx="2031.36" cy="610.858" r="4.47429" fill="white"/>
<circle cx="2051.05" cy="610.858" r="4.47429" fill="white"/>
<circle cx="2070.74" cy="610.858" r="4.47429" fill="white"/>
<circle cx="1893.55" cy="630.545" r="4.47429" fill="white"/>
<circle cx="1913.24" cy="630.545" r="4.47429" fill="white"/>
<circle cx="1932.93" cy="630.545" r="4.47429" fill="white"/>
<circle cx="1952.61" cy="630.545" r="4.47429" fill="white"/>
<circle cx="1972.3" cy="630.545" r="4.47429" fill="white"/>
<circle cx="1991.99" cy="630.545" r="4.47429" fill="white"/>
<circle cx="2011.68" cy="630.545" r="4.47429" fill="white"/>
<circle cx="2031.36" cy="630.545" r="4.47429" fill="white"/>
<circle cx="2051.05" cy="630.545" r="4.47429" fill="white"/>
<circle cx="2070.74" cy="630.545" r="4.47429" fill="white"/>
<circle cx="1893.55" cy="650.231" r="4.47429" fill="white"/>
<circle cx="1913.24" cy="650.231" r="4.47429" fill="white"/>
<circle cx="1932.93" cy="650.231" r="4.47429" fill="white"/>
<circle cx="1952.61" cy="650.231" r="4.47429" fill="white"/>
<circle cx="1972.3" cy="650.231" r="4.47429" fill="white"/>
<circle cx="1991.99" cy="650.231" r="4.47429" fill="white"/>
<circle cx="2011.68" cy="650.231" r="4.47429" fill="white"/>
<circle cx="2031.36" cy="650.231" r="4.47429" fill="white"/>
<circle cx="2051.05" cy="650.231" r="4.47429" fill="white"/>
<circle cx="2070.74" cy="650.231" r="4.47429" fill="white"/>
<circle cx="1893.55" cy="669.918" r="4.47429" fill="white"/>
<circle cx="1913.24" cy="669.918" r="4.47429" fill="white"/>
<circle cx="1932.93" cy="669.918" r="4.47429" fill="white"/>
<circle cx="1952.61" cy="669.918" r="4.47429" fill="white"/>
<circle cx="1972.3" cy="669.918" r="4.47429" fill="white"/>
<circle cx="1991.99" cy="669.918" r="4.47429" fill="white"/>
<circle cx="2011.68" cy="669.918" r="4.47429" fill="white"/>
<circle cx="2031.36" cy="669.918" r="4.47429" fill="white"/>
<circle cx="2051.05" cy="669.918" r="4.47429" fill="white"/>
<circle cx="2070.74" cy="669.918" r="4.47429" fill="white"/>
<circle cx="1893.55" cy="689.605" r="4.47429" fill="white"/>
<circle cx="1913.24" cy="689.605" r="4.47429" fill="white"/>
<circle cx="1932.93" cy="689.605" r="4.47429" fill="white"/>
<circle cx="1952.61" cy="689.605" r="4.47429" fill="white"/>
<circle cx="1972.3" cy="689.605" r="4.47429" fill="white"/>
<circle cx="1991.99" cy="689.605" r="4.47429" fill="white"/>
<circle cx="2011.68" cy="689.605" r="4.47429" fill="white"/>
<circle cx="2031.36" cy="689.605" r="4.47429" fill="white"/>
<circle cx="2051.05" cy="689.605" r="4.47429" fill="white"/>
<circle cx="2070.74" cy="689.605" r="4.47429" fill="white"/>
<circle cx="1893.55" cy="709.292" r="4.47429" fill="white"/>
<circle cx="1913.24" cy="709.292" r="4.47429" fill="white"/>
<circle cx="1932.93" cy="709.292" r="4.47429" fill="white"/>
<circle cx="1952.61" cy="709.292" r="4.47429" fill="white"/>
<circle cx="1972.3" cy="709.292" r="4.47429" fill="white"/>
<circle cx="1991.99" cy="709.292" r="4.47429" fill="white"/>
<circle cx="2011.68" cy="709.292" r="4.47429" fill="white"/>
<circle cx="2031.36" cy="709.292" r="4.47429" fill="white"/>
<circle cx="2051.05" cy="709.292" r="4.47429" fill="white"/>
<circle cx="2070.74" cy="709.292" r="4.47429" fill="white"/>
<circle cx="1893.55" cy="728.979" r="4.47429" fill="white"/>
<circle cx="1913.24" cy="728.979" r="4.47429" fill="white"/>
<circle cx="1932.93" cy="728.979" r="4.47429" fill="white"/>
<circle cx="1952.61" cy="728.979" r="4.47429" fill="white"/>
<circle cx="1972.3" cy="728.979" r="4.47429" fill="white"/>
<circle cx="1991.99" cy="728.979" r="4.47429" fill="white"/>
<circle cx="2011.68" cy="728.979" r="4.47429" fill="white"/>
<circle cx="2031.36" cy="728.979" r="4.47429" fill="white"/>
<circle cx="2051.05" cy="728.979" r="4.47429" fill="white"/>
<circle cx="2070.74" cy="728.979" r="4.47429" fill="white"/>
<circle cx="1893.55" cy="748.666" r="4.47429" fill="white"/>
<circle cx="1913.24" cy="748.666" r="4.47429" fill="white"/>
<circle cx="1932.93" cy="748.666" r="4.47429" fill="white"/>
<circle cx="1952.61" cy="748.666" r="4.47429" fill="white"/>
<circle cx="1972.3" cy="748.666" r="4.47429" fill="white"/>
<circle cx="1991.99" cy="748.666" r="4.47429" fill="white"/>
<circle cx="2011.68" cy="748.666" r="4.47429" fill="white"/>
<circle cx="2031.36" cy="748.666" r="4.47429" fill="white"/>
<circle cx="2051.05" cy="748.666" r="4.47429" fill="white"/>
<circle cx="2070.74" cy="748.666" r="4.47429" fill="white"/>
</g>
</g>
<g style="mix-blend-mode:luminosity" opacity="0.1">
<mask id="mask2_2010_28497" style="mask-type:alpha" maskUnits="userSpaceOnUse" x="417" y="468" width="309" height="309">
<circle cx="571.03" cy="622.64" r="153.99" fill="#D9D9D9"/>
</mask>
<g mask="url(#mask2_2010_28497)">
<circle cx="643.405" cy="633.419" r="4.6197" fill="white"/>
<circle cx="661.884" cy="633.419" r="4.6197" fill="white"/>
<circle cx="680.363" cy="633.419" r="4.6197" fill="white"/>
<circle cx="421.66" cy="633.419" r="4.6197" fill="white"/>
<circle cx="698.842" cy="633.419" r="4.6197" fill="white"/>
<circle cx="440.138" cy="633.419" r="4.6197" fill="white"/>
<circle cx="717.321" cy="633.419" r="4.6197" fill="white"/>
<circle cx="458.617" cy="633.419" r="4.6197" fill="white"/>
<circle cx="477.096" cy="633.419" r="4.6197" fill="white"/>
<circle cx="495.575" cy="633.419" r="4.6197" fill="white"/>
<circle cx="514.054" cy="633.419" r="4.6197" fill="white"/>
<circle cx="532.532" cy="633.419" r="4.6197" fill="white"/>
<circle cx="551.011" cy="633.419" r="4.6197" fill="white"/>
<circle cx="569.49" cy="633.419" r="4.6197" fill="white"/>
<circle cx="587.969" cy="633.419" r="4.6197" fill="white"/>
<circle cx="606.448" cy="633.419" r="4.6197" fill="white"/>
<circle cx="624.926" cy="633.419" r="4.6197" fill="white"/>
<circle cx="643.405" cy="651.898" r="4.6197" fill="white"/>
<circle cx="661.884" cy="651.898" r="4.6197" fill="white"/>
<circle cx="680.363" cy="651.898" r="4.6197" fill="white"/>
<circle cx="421.66" cy="651.898" r="4.6197" fill="white"/>
<circle cx="698.842" cy="651.898" r="4.6197" fill="white"/>
<circle cx="440.138" cy="651.898" r="4.6197" fill="white"/>
<circle cx="717.321" cy="651.898" r="4.6197" fill="white"/>
<circle cx="458.617" cy="651.898" r="4.6197" fill="white"/>
<circle cx="477.096" cy="651.898" r="4.6197" fill="white"/>
<circle cx="495.575" cy="651.898" r="4.6197" fill="white"/>
<circle cx="514.054" cy="651.898" r="4.6197" fill="white"/>
<circle cx="532.532" cy="651.898" r="4.6197" fill="white"/>
<circle cx="551.011" cy="651.898" r="4.6197" fill="white"/>
<circle cx="569.49" cy="651.898" r="4.6197" fill="white"/>
<circle cx="587.969" cy="651.898" r="4.6197" fill="white"/>
<circle cx="606.448" cy="651.898" r="4.6197" fill="white"/>
<circle cx="624.926" cy="651.898" r="4.6197" fill="white"/>
<circle cx="643.405" cy="670.377" r="4.6197" fill="white"/>
<circle cx="661.884" cy="670.377" r="4.6197" fill="white"/>
<circle cx="680.363" cy="670.377" r="4.6197" fill="white"/>
<circle cx="421.66" cy="670.377" r="4.6197" fill="white"/>
<circle cx="698.842" cy="670.377" r="4.6197" fill="white"/>
<circle cx="440.138" cy="670.377" r="4.6197" fill="white"/>
<circle cx="717.321" cy="670.377" r="4.6197" fill="white"/>
<circle cx="458.617" cy="670.377" r="4.6197" fill="white"/>
<circle cx="477.096" cy="670.377" r="4.6197" fill="white"/>
<circle cx="495.575" cy="670.377" r="4.6197" fill="white"/>
<circle cx="514.054" cy="670.377" r="4.6197" fill="white"/>
<circle cx="532.532" cy="670.377" r="4.6197" fill="white"/>
<circle cx="551.011" cy="670.377" r="4.6197" fill="white"/>
<circle cx="569.49" cy="670.377" r="4.6197" fill="white"/>
<circle cx="587.969" cy="670.377" r="4.6197" fill="white"/>
<circle cx="606.448" cy="670.377" r="4.6197" fill="white"/>
<circle cx="624.926" cy="670.377" r="4.6197" fill="white"/>
<circle cx="643.405" cy="688.856" r="4.6197" fill="white"/>
<circle cx="661.884" cy="688.856" r="4.6197" fill="white"/>
<circle cx="680.363" cy="688.856" r="4.6197" fill="white"/>
<circle cx="421.66" cy="688.856" r="4.6197" fill="white"/>
<circle cx="698.842" cy="688.856" r="4.6197" fill="white"/>
<circle cx="440.138" cy="688.856" r="4.6197" fill="white"/>
<circle cx="717.321" cy="688.856" r="4.6197" fill="white"/>
<circle cx="458.617" cy="688.856" r="4.6197" fill="white"/>
<circle cx="477.096" cy="688.856" r="4.6197" fill="white"/>
<circle cx="495.575" cy="688.856" r="4.6197" fill="white"/>
<circle cx="514.054" cy="688.856" r="4.6197" fill="white"/>
<circle cx="532.532" cy="688.856" r="4.6197" fill="white"/>
<circle cx="551.011" cy="688.856" r="4.6197" fill="white"/>
<circle cx="569.49" cy="688.856" r="4.6197" fill="white"/>
<circle cx="587.969" cy="688.856" r="4.6197" fill="white"/>
<circle cx="606.448" cy="688.856" r="4.6197" fill="white"/>
<circle cx="624.926" cy="688.856" r="4.6197" fill="white"/>
<circle cx="643.405" cy="707.334" r="4.6197" fill="white"/>
<circle cx="661.884" cy="707.334" r="4.6197" fill="white"/>
<circle cx="680.363" cy="707.334" r="4.6197" fill="white"/>
<circle cx="421.66" cy="707.334" r="4.6197" fill="white"/>
<circle cx="698.842" cy="707.334" r="4.6197" fill="white"/>
<circle cx="440.138" cy="707.334" r="4.6197" fill="white"/>
<circle cx="717.321" cy="707.334" r="4.6197" fill="white"/>
<circle cx="458.617" cy="707.334" r="4.6197" fill="white"/>
<circle cx="477.096" cy="707.334" r="4.6197" fill="white"/>
<circle cx="495.575" cy="707.334" r="4.6197" fill="white"/>
<circle cx="514.054" cy="707.334" r="4.6197" fill="white"/>
<circle cx="532.532" cy="707.334" r="4.6197" fill="white"/>
<circle cx="551.011" cy="707.334" r="4.6197" fill="white"/>
<circle cx="569.49" cy="707.334" r="4.6197" fill="white"/>
<circle cx="587.969" cy="707.334" r="4.6197" fill="white"/>
<circle cx="606.448" cy="707.334" r="4.6197" fill="white"/>
<circle cx="624.926" cy="707.334" r="4.6197" fill="white"/>
<circle cx="643.405" cy="725.813" r="4.6197" fill="white"/>
<circle cx="661.884" cy="725.813" r="4.6197" fill="white"/>
<circle cx="680.363" cy="725.813" r="4.6197" fill="white"/>
<circle cx="421.66" cy="725.813" r="4.6197" fill="white"/>
<circle cx="698.842" cy="725.813" r="4.6197" fill="white"/>
<circle cx="440.138" cy="725.813" r="4.6197" fill="white"/>
<circle cx="717.321" cy="725.813" r="4.6197" fill="white"/>
<circle cx="458.617" cy="725.813" r="4.6197" fill="white"/>
<circle cx="477.096" cy="725.813" r="4.6197" fill="white"/>
<circle cx="495.575" cy="725.813" r="4.6197" fill="white"/>
<circle cx="514.054" cy="725.813" r="4.6197" fill="white"/>
<circle cx="532.532" cy="725.813" r="4.6197" fill="white"/>
<circle cx="551.011" cy="725.813" r="4.6197" fill="white"/>
<circle cx="569.49" cy="725.813" r="4.6197" fill="white"/>
<circle cx="587.969" cy="725.813" r="4.6197" fill="white"/>
<circle cx="606.448" cy="725.813" r="4.6197" fill="white"/>
<circle cx="624.926" cy="725.813" r="4.6197" fill="white"/>
<circle cx="643.405" cy="744.292" r="4.6197" fill="white"/>
<circle cx="661.884" cy="744.292" r="4.6197" fill="white"/>
<circle cx="680.363" cy="744.292" r="4.6197" fill="white"/>
<circle cx="421.66" cy="744.292" r="4.6197" fill="white"/>
<circle cx="698.842" cy="744.292" r="4.6197" fill="white"/>
<circle cx="440.138" cy="744.292" r="4.6197" fill="white"/>
<circle cx="717.321" cy="744.292" r="4.6197" fill="white"/>
<circle cx="458.617" cy="744.292" r="4.6197" fill="white"/>
<circle cx="477.096" cy="744.292" r="4.6197" fill="white"/>
<circle cx="495.575" cy="744.292" r="4.6197" fill="white"/>
<circle cx="514.054" cy="744.292" r="4.6197" fill="white"/>
<circle cx="532.532" cy="744.292" r="4.6197" fill="white"/>
<circle cx="551.011" cy="744.292" r="4.6197" fill="white"/>
<circle cx="569.49" cy="744.292" r="4.6197" fill="white"/>
<circle cx="587.969" cy="744.292" r="4.6197" fill="white"/>
<circle cx="606.448" cy="744.292" r="4.6197" fill="white"/>
<circle cx="624.926" cy="744.292" r="4.6197" fill="white"/>
<circle cx="643.405" cy="762.771" r="4.6197" fill="white"/>
<circle cx="661.884" cy="762.771" r="4.6197" fill="white"/>
<circle cx="680.363" cy="762.771" r="4.6197" fill="white"/>
<circle cx="421.66" cy="762.771" r="4.6197" fill="white"/>
<circle cx="698.842" cy="762.771" r="4.6197" fill="white"/>
<circle cx="440.138" cy="762.771" r="4.6197" fill="white"/>
<circle cx="717.321" cy="762.771" r="4.6197" fill="white"/>
<circle cx="458.617" cy="762.771" r="4.6197" fill="white"/>
<circle cx="477.096" cy="762.771" r="4.6197" fill="white"/>
<circle cx="495.575" cy="762.771" r="4.6197" fill="white"/>
<circle cx="514.054" cy="762.771" r="4.6197" fill="white"/>
<circle cx="532.532" cy="762.771" r="4.6197" fill="white"/>
<circle cx="551.011" cy="762.771" r="4.6197" fill="white"/>
<circle cx="569.49" cy="762.771" r="4.6197" fill="white"/>
<circle cx="587.969" cy="762.771" r="4.6197" fill="white"/>
<circle cx="606.448" cy="762.771" r="4.6197" fill="white"/>
<circle cx="624.926" cy="762.771" r="4.6197" fill="white"/>
<circle cx="643.405" cy="467.11" r="4.6197" fill="white"/>
<circle cx="661.884" cy="467.11" r="4.6197" fill="white"/>
<circle cx="680.363" cy="467.11" r="4.6197" fill="white"/>
<circle cx="421.66" cy="467.11" r="4.6197" fill="white"/>
<circle cx="698.842" cy="467.11" r="4.6197" fill="white"/>
<circle cx="440.138" cy="467.11" r="4.6197" fill="white"/>
<circle cx="717.321" cy="467.11" r="4.6197" fill="white"/>
<circle cx="458.617" cy="467.11" r="4.6197" fill="white"/>
<circle cx="477.096" cy="467.11" r="4.6197" fill="white"/>
<circle cx="495.575" cy="467.11" r="4.6197" fill="white"/>
<circle cx="514.054" cy="467.11" r="4.6197" fill="white"/>
<circle cx="532.532" cy="467.11" r="4.6197" fill="white"/>
<circle cx="551.011" cy="467.11" r="4.6197" fill="white"/>
<circle cx="569.49" cy="467.11" r="4.6197" fill="white"/>
<circle cx="587.969" cy="467.11" r="4.6197" fill="white"/>
<circle cx="606.448" cy="467.11" r="4.6197" fill="white"/>
<circle cx="624.926" cy="467.11" r="4.6197" fill="white"/>
<circle cx="643.405" cy="485.589" r="4.6197" fill="white"/>
<circle cx="661.884" cy="485.589" r="4.6197" fill="white"/>
<circle cx="680.363" cy="485.589" r="4.6197" fill="white"/>
<circle cx="421.66" cy="485.589" r="4.6197" fill="white"/>
<circle cx="698.842" cy="485.589" r="4.6197" fill="white"/>
<circle cx="440.138" cy="485.589" r="4.6197" fill="white"/>
<circle cx="717.321" cy="485.589" r="4.6197" fill="white"/>
<circle cx="458.617" cy="485.589" r="4.6197" fill="white"/>
<circle cx="477.096" cy="485.589" r="4.6197" fill="white"/>
<circle cx="495.575" cy="485.589" r="4.6197" fill="white"/>
<circle cx="514.054" cy="485.589" r="4.6197" fill="white"/>
<circle cx="532.532" cy="485.589" r="4.6197" fill="white"/>
<circle cx="551.011" cy="485.589" r="4.6197" fill="white"/>
<circle cx="569.49" cy="485.589" r="4.6197" fill="white"/>
<circle cx="587.969" cy="485.589" r="4.6197" fill="white"/>
<circle cx="606.448" cy="485.589" r="4.6197" fill="white"/>
<circle cx="624.926" cy="485.589" r="4.6197" fill="white"/>
<circle cx="643.405" cy="504.068" r="4.6197" fill="white"/>
<circle cx="661.884" cy="504.068" r="4.6197" fill="white"/>
<circle cx="680.363" cy="504.068" r="4.6197" fill="white"/>
<circle cx="421.66" cy="504.068" r="4.6197" fill="white"/>
<circle cx="698.842" cy="504.068" r="4.6197" fill="white"/>
<circle cx="440.138" cy="504.068" r="4.6197" fill="white"/>
<circle cx="717.321" cy="504.068" r="4.6197" fill="white"/>
<circle cx="458.617" cy="504.068" r="4.6197" fill="white"/>
<circle cx="477.096" cy="504.068" r="4.6197" fill="white"/>
<circle cx="495.575" cy="504.068" r="4.6197" fill="white"/>
<circle cx="514.054" cy="504.068" r="4.6197" fill="white"/>
<circle cx="532.532" cy="504.068" r="4.6197" fill="white"/>
<circle cx="551.011" cy="504.068" r="4.6197" fill="white"/>
<circle cx="569.49" cy="504.068" r="4.6197" fill="white"/>
<circle cx="587.969" cy="504.068" r="4.6197" fill="white"/>
<circle cx="606.448" cy="504.068" r="4.6197" fill="white"/>
<circle cx="624.926" cy="504.068" r="4.6197" fill="white"/>
<circle cx="643.405" cy="522.546" r="4.6197" fill="white"/>
<circle cx="661.884" cy="522.546" r="4.6197" fill="white"/>
<circle cx="680.363" cy="522.546" r="4.6197" fill="white"/>
<circle cx="421.66" cy="522.546" r="4.6197" fill="white"/>
<circle cx="698.842" cy="522.546" r="4.6197" fill="white"/>
<circle cx="440.138" cy="522.546" r="4.6197" fill="white"/>
<circle cx="717.321" cy="522.546" r="4.6197" fill="white"/>
<circle cx="458.617" cy="522.546" r="4.6197" fill="white"/>
<circle cx="477.096" cy="522.546" r="4.6197" fill="white"/>
<circle cx="495.575" cy="522.546" r="4.6197" fill="white"/>
<circle cx="514.054" cy="522.546" r="4.6197" fill="white"/>
<circle cx="532.532" cy="522.546" r="4.6197" fill="white"/>
<circle cx="551.011" cy="522.546" r="4.6197" fill="white"/>
<circle cx="569.49" cy="522.546" r="4.6197" fill="white"/>
<circle cx="587.969" cy="522.546" r="4.6197" fill="white"/>
<circle cx="606.448" cy="522.546" r="4.6197" fill="white"/>
<circle cx="624.926" cy="522.546" r="4.6197" fill="white"/>
<circle cx="643.405" cy="541.025" r="4.6197" fill="white"/>
<circle cx="661.884" cy="541.025" r="4.6197" fill="white"/>
<circle cx="680.363" cy="541.025" r="4.6197" fill="white"/>
<circle cx="421.66" cy="541.025" r="4.6197" fill="white"/>
<circle cx="698.842" cy="541.025" r="4.6197" fill="white"/>
<circle cx="440.138" cy="541.025" r="4.6197" fill="white"/>
<circle cx="717.321" cy="541.025" r="4.6197" fill="white"/>
<circle cx="458.617" cy="541.025" r="4.6197" fill="white"/>
<circle cx="477.096" cy="541.025" r="4.6197" fill="white"/>
<circle cx="495.575" cy="541.025" r="4.6197" fill="white"/>
<circle cx="514.054" cy="541.025" r="4.6197" fill="white"/>
<circle cx="532.532" cy="541.025" r="4.6197" fill="white"/>
<circle cx="551.011" cy="541.025" r="4.6197" fill="white"/>
<circle cx="569.49" cy="541.025" r="4.6197" fill="white"/>
<circle cx="587.969" cy="541.025" r="4.6197" fill="white"/>
<circle cx="606.448" cy="541.025" r="4.6197" fill="white"/>
<circle cx="624.926" cy="541.025" r="4.6197" fill="white"/>
<circle cx="643.405" cy="559.504" r="4.6197" fill="white"/>
<circle cx="661.884" cy="559.504" r="4.6197" fill="white"/>
<circle cx="680.363" cy="559.504" r="4.6197" fill="white"/>
<circle cx="421.66" cy="559.504" r="4.6197" fill="white"/>
<circle cx="698.842" cy="559.504" r="4.6197" fill="white"/>
<circle cx="440.138" cy="559.504" r="4.6197" fill="white"/>
<circle cx="717.321" cy="559.504" r="4.6197" fill="white"/>
<circle cx="458.617" cy="559.504" r="4.6197" fill="white"/>
<circle cx="477.096" cy="559.504" r="4.6197" fill="white"/>
<circle cx="495.575" cy="559.504" r="4.6197" fill="white"/>
<circle cx="514.054" cy="559.504" r="4.6197" fill="white"/>
<circle cx="532.532" cy="559.504" r="4.6197" fill="white"/>
<circle cx="551.011" cy="559.504" r="4.6197" fill="white"/>
<circle cx="569.49" cy="559.504" r="4.6197" fill="white"/>
<circle cx="587.969" cy="559.504" r="4.6197" fill="white"/>
<circle cx="606.448" cy="559.504" r="4.6197" fill="white"/>
<circle cx="624.926" cy="559.504" r="4.6197" fill="white"/>
<circle cx="643.405" cy="577.983" r="4.6197" fill="white"/>
<circle cx="661.884" cy="577.983" r="4.6197" fill="white"/>
<circle cx="680.363" cy="577.983" r="4.6197" fill="white"/>
<circle cx="421.66" cy="577.983" r="4.6197" fill="white"/>
<circle cx="698.842" cy="577.983" r="4.6197" fill="white"/>
<circle cx="440.138" cy="577.983" r="4.6197" fill="white"/>
<circle cx="717.321" cy="577.983" r="4.6197" fill="white"/>
<circle cx="458.617" cy="577.983" r="4.6197" fill="white"/>
<circle cx="477.096" cy="577.983" r="4.6197" fill="white"/>
<circle cx="495.575" cy="577.983" r="4.6197" fill="white"/>
<circle cx="514.054" cy="577.983" r="4.6197" fill="white"/>
<circle cx="532.532" cy="577.983" r="4.6197" fill="white"/>
<circle cx="551.011" cy="577.983" r="4.6197" fill="white"/>
<circle cx="569.49" cy="577.983" r="4.6197" fill="white"/>
<circle cx="587.969" cy="577.983" r="4.6197" fill="white"/>
<circle cx="606.448" cy="577.983" r="4.6197" fill="white"/>
<circle cx="624.926" cy="577.983" r="4.6197" fill="white"/>
<circle cx="643.405" cy="596.462" r="4.6197" fill="white"/>
<circle cx="661.884" cy="596.462" r="4.6197" fill="white"/>
<circle cx="680.363" cy="596.462" r="4.6197" fill="white"/>
<circle cx="421.66" cy="596.462" r="4.6197" fill="white"/>
<circle cx="698.842" cy="596.462" r="4.6197" fill="white"/>
<circle cx="440.138" cy="596.462" r="4.6197" fill="white"/>
<circle cx="717.321" cy="596.462" r="4.6197" fill="white"/>
<circle cx="458.617" cy="596.462" r="4.6197" fill="white"/>
<circle cx="477.096" cy="596.462" r="4.6197" fill="white"/>
<circle cx="495.575" cy="596.462" r="4.6197" fill="white"/>
<circle cx="514.054" cy="596.462" r="4.6197" fill="white"/>
<circle cx="532.532" cy="596.462" r="4.6197" fill="white"/>
<circle cx="551.011" cy="596.462" r="4.6197" fill="white"/>
<circle cx="569.49" cy="596.462" r="4.6197" fill="white"/>
<circle cx="587.969" cy="596.462" r="4.6197" fill="white"/>
<circle cx="606.448" cy="596.462" r="4.6197" fill="white"/>
<circle cx="624.926" cy="596.462" r="4.6197" fill="white"/>
<circle cx="643.405" cy="614.94" r="4.6197" fill="white"/>
<circle cx="661.884" cy="614.94" r="4.6197" fill="white"/>
<circle cx="680.363" cy="614.94" r="4.6197" fill="white"/>
<circle cx="421.66" cy="614.94" r="4.6197" fill="white"/>
<circle cx="698.842" cy="614.94" r="4.6197" fill="white"/>
<circle cx="440.138" cy="614.94" r="4.6197" fill="white"/>
<circle cx="717.321" cy="614.94" r="4.6197" fill="white"/>
<circle cx="458.617" cy="614.94" r="4.6197" fill="white"/>
<circle cx="477.096" cy="614.94" r="4.6197" fill="white"/>
<circle cx="495.575" cy="614.94" r="4.6197" fill="white"/>
<circle cx="514.054" cy="614.94" r="4.6197" fill="white"/>
<circle cx="532.532" cy="614.94" r="4.6197" fill="white"/>
<circle cx="551.011" cy="614.94" r="4.6197" fill="white"/>
<circle cx="569.49" cy="614.94" r="4.6197" fill="white"/>
<circle cx="587.969" cy="614.94" r="4.6197" fill="white"/>
<circle cx="606.448" cy="614.94" r="4.6197" fill="white"/>
<circle cx="624.926" cy="614.94" r="4.6197" fill="white"/>
</g>
</g>
</g>
<defs>
<linearGradient id="paint0_linear_2010_28497" x1="-0.00415671" y1="560.988" x2="2340.92" y2="560.988" gradientUnits="userSpaceOnUse">
<stop stop-color="#B61635"/>
<stop offset="1" stop-color="#8F0E27"/>
</linearGradient>
<linearGradient id="paint1_linear_2010_28497" x1="284.8" y1="-98.5898" x2="284.8" y2="444.29" gradientUnits="userSpaceOnUse">
<stop stop-color="#9C112C"/>
<stop offset="0.359375" stop-color="#A2122E"/>
</linearGradient>
<linearGradient id="paint2_linear_2010_28497" x1="344.395" y1="-310" x2="344.395" y2="574.79" gradientUnits="userSpaceOnUse">
<stop stop-color="#9C112C"/>
<stop offset="0.359375" stop-color="#A2122E"/>
</linearGradient>
<linearGradient id="paint3_linear_2010_28497" x1="1675.57" y1="142.086" x2="1675.57" y2="228.993" gradientUnits="userSpaceOnUse">
<stop stop-color="#A2122E"/>
<stop offset="1" stop-color="#670619"/>
</linearGradient>
<linearGradient id="paint4_linear_2010_28497" x1="1675.57" y1="123.193" x2="1675.57" y2="247.886" gradientUnits="userSpaceOnUse">
<stop stop-color="#A2122E"/>
<stop offset="1" stop-color="#670619"/>
</linearGradient>
<linearGradient id="paint5_linear_2010_28497" x1="1675.57" y1="100.522" x2="1675.57" y2="270.558" gradientUnits="userSpaceOnUse">
<stop stop-color="#A2122E"/>
<stop offset="1" stop-color="#670619"/>
</linearGradient>
<linearGradient id="paint6_linear_2010_28497" x1="1674.62" y1="74.0715" x2="1674.62" y2="295.118" gradientUnits="userSpaceOnUse">
<stop stop-color="#A2122E"/>
<stop offset="1" stop-color="#670619"/>
</linearGradient>
<linearGradient id="paint7_linear_2010_28497" x1="1674.62" y1="47.6214" x2="1674.62" y2="321.568" gradientUnits="userSpaceOnUse">
<stop stop-color="#A2122E"/>
<stop offset="1" stop-color="#670619"/>
</linearGradient>
<linearGradient id="paint8_linear_2010_28497" x1="1674.62" y1="24.95" x2="1674.62" y2="344.24" gradientUnits="userSpaceOnUse">
<stop stop-color="#A2122E"/>
<stop offset="1" stop-color="#670619"/>
</linearGradient>
<linearGradient id="paint9_linear_2010_28497" x1="1086.21" y1="704.255" x2="1086.21" y2="757.063" gradientUnits="userSpaceOnUse">
<stop stop-color="#A2122E"/>
<stop offset="1" stop-color="#670619"/>
</linearGradient>
<linearGradient id="paint10_linear_2010_28497" x1="1086.21" y1="692.775" x2="1086.21" y2="768.543" gradientUnits="userSpaceOnUse">
<stop stop-color="#A2122E"/>
<stop offset="1" stop-color="#670619"/>
</linearGradient>
<linearGradient id="paint11_linear_2010_28497" x1="1086.21" y1="679" x2="1086.21" y2="782.319" gradientUnits="userSpaceOnUse">
<stop stop-color="#A2122E"/>
<stop offset="1" stop-color="#670619"/>
</linearGradient>
<linearGradient id="paint12_linear_2010_28497" x1="1085.63" y1="662.928" x2="1085.63" y2="797.242" gradientUnits="userSpaceOnUse">
<stop stop-color="#A2122E"/>
<stop offset="1" stop-color="#670619"/>
</linearGradient>
<linearGradient id="paint13_linear_2010_28497" x1="1085.63" y1="646.856" x2="1085.63" y2="813.314" gradientUnits="userSpaceOnUse">
<stop stop-color="#A2122E"/>
<stop offset="1" stop-color="#670619"/>
</linearGradient>
<linearGradient id="paint14_linear_2010_28497" x1="1085.63" y1="633.08" x2="1085.63" y2="827.09" gradientUnits="userSpaceOnUse">
<stop stop-color="#A2122E"/>
<stop offset="1" stop-color="#670619"/>
</linearGradient>
<clipPath id="clip0_2010_28497">
<rect width="2341" height="1038" fill="white"/>
</clipPath>
<clipPath id="clip1_2010_28497">
<rect width="319.29" height="319.29" fill="white" transform="translate(1514.98 24.95)"/>
</clipPath>
<clipPath id="clip2_2010_28497">
<rect width="194.01" height="194.01" fill="white" transform="translate(988.63 633.08)"/>
</clipPath>
</defs>
</svg>
