<svg width="298" height="300" viewBox="0 0 298 300" xmlns="http://www.w3.org/2000/svg">
  <path fill-rule="evenodd" clip-rule="evenodd" d="M127.5 1.19664C74.254 10.6036 31.069 47.1596 13.122 98.0146C-0.0970001 135.473 3.271 179.485 22.033 214.461L25.926 221.72L12.963 259.85C5.833 280.821 0 298.367 0 298.841C0 299.315 0.538 299.703 1.195 299.703C1.853 299.703 20.008 294.075 41.541 287.196L80.691 274.69L89.096 278.571C99.561 283.404 113.816 288.009 125.536 290.344C137.816 292.79 164.786 292.803 178 290.368C207.122 285.002 233.927 270.777 255.542 249.217C274.988 229.821 286.915 208.979 294.178 181.703C296.938 171.338 297.29 168.313 297.747 151.053C298.152 135.743 297.907 129.827 296.525 121.553C288.874 75.7596 259.219 35.8516 217.5 15.2046C203.492 8.27164 196.29 5.62564 183 2.52864C171.649 -0.117363 139.324 -0.893363 127.5 1.19664ZM176.434 27.8246C225.92 37.7426 264.008 78.2356 271.439 128.831C273.975 146.099 273.14 159.708 268.441 177.703C265.395 189.369 256.037 208.656 248.804 218.176C229.016 244.223 199.433 261.502 167.281 265.792C155.967 267.302 136.087 266.381 124.936 263.83C113.827 261.289 102.465 256.862 92.585 251.226L84.671 246.71L61.968 254.043L39.265 261.375L46.668 239.192L54.07 217.008L50.428 211.606C29.383 180.392 25.161 137.63 39.52 101.129C49.753 75.1166 72.192 50.6636 97.5 37.9466C110.071 31.6296 127.641 26.6566 142 25.3506C150.034 24.6206 166.266 25.7866 176.434 27.8246ZM97.5 75.0586C93.404 76.9156 85.696 85.3896 82.709 91.3196C77.748 101.168 76.883 111.015 79.932 122.937C85.684 145.427 111.845 180.286 135.8 197.38C148.401 206.372 180.614 219.703 189.74 219.703C201.217 219.703 214.121 214.55 220.806 207.298C225.35 202.368 228 195.125 228 187.637C228 182.056 228.974 182.836 208.864 172.309C200.162 167.754 193.131 164.703 191.334 164.703C189.004 164.703 187.579 165.651 184.945 168.953C177.533 178.245 172.757 182.703 170.215 182.703C166.573 182.703 152.157 174.539 143.497 167.572C134.937 160.686 125.074 148.848 120.033 139.41L116.566 132.919L122.128 126.561C128.575 119.192 130 116.793 130 113.305C130 109.81 118.268 78.5856 116.189 76.5456C113.817 74.2196 101.512 73.2406 97.5 75.0586Z"/>
</svg>
